<?xml version="1.0" standalone="no"?>
<!DOCTYPE svg PUBLIC "-//W3C//DTD SVG 20010904//EN"
 "http://www.w3.org/TR/2001/REC-SVG-20010904/DTD/svg10.dtd">
<svg version="1.0" xmlns="http://www.w3.org/2000/svg"
 width="512.000000pt" height="512.000000pt" viewBox="0 0 512.000000 512.000000"
 preserveAspectRatio="xMidYMid meet">

<g transform="translate(0.000000,512.000000) scale(0.100000,-0.100000)"
fill="#000000" stroke="none">
<path fill="currentColor" d="M2472 5108 c-8 -8 -12 -66 -12 -195 0 -167 2 -183 18 -192 14 -7 25
-6 40 5 21 14 22 22 22 185 0 98 -4 178 -10 190 -12 21 -40 25 -58 7z"/>
<path fill="currentColor" d="M1582 4908 c-6 -6 -12 -18 -12 -24 0 -16 157 -283 181 -309 15 -15
23 -17 37 -9 34 22 23 56 -66 204 -87 146 -110 168 -140 138z"/>
<path fill="currentColor" d="M3313 4908 c-43 -56 -174 -292 -171 -310 4 -29 32 -45 51 -29 20 16
187 297 187 314 0 32 -48 49 -67 25z"/>
<path fill="currentColor" d="M2303 4585 c-439 -80 -791 -434 -868 -874 -64 -364 63 -737 336 -983
175 -157 179 -161 204 -223 27 -68 46 -86 73 -69 25 16 25 34 1 100 -23 61
-71 115 -227 252 -93 82 -162 174 -222 297 -79 161 -95 237 -94 445 0 161 2
182 27 263 29 93 90 223 140 297 45 66 162 184 238 241 81 60 226 130 334 161
70 20 101 23 255 23 148 -1 187 -4 253 -23 350 -97 625 -374 713 -718 99 -390
-33 -779 -354 -1042 -58 -47 -112 -101 -130 -129 -37 -59 -62 -141 -62 -204
l0 -48 -473 -3 -473 -3 -41 -27 c-22 -15 -51 -44 -64 -65 -24 -38 -24 -42 -27
-348 -2 -170 -1 -319 2 -331 7 -27 41 -40 61 -24 11 10 15 38 15 116 l0 104
463 0 c470 0 487 1 487 36 0 7 -7 20 -16 28 -14 14 -71 16 -475 16 l-459 0 0
90 0 90 459 0 c404 0 461 2 475 16 9 8 16 21 16 28 0 35 -17 36 -487 36 l-463
0 0 35 c0 48 24 91 60 110 26 14 95 15 531 13 l501 -3 29 -33 29 -32 0 -314
c0 -273 2 -317 16 -330 19 -19 36 -20 52 -4 18 18 17 637 -2 681 -15 38 -76
94 -111 103 -23 6 -25 11 -25 63 1 110 38 172 162 271 238 192 376 443 410
750 22 197 -13 383 -106 575 -66 134 -127 216 -239 321 -200 187 -454 285
-734 283 -65 0 -150 -7 -190 -14z"/>
<path fill="currentColor" d="M2364 4325 c-95 -17 -134 -30 -224 -76 -90 -45 -126 -71 -204 -147
-68 -67 -126 -148 -167 -235 -95 -203 -95 -471 0 -674 100 -213 302 -384 528
-445 105 -28 297 -30 398 -4 156 41 297 126 405 243 78 86 131 176 172 294 31
90 33 100 33 249 0 149 -2 159 -33 249 -42 121 -98 216 -179 302 -189 201
-464 292 -729 244z m284 -81 c147 -30 265 -95 372 -203 87 -89 140 -173 177
-286 25 -72 27 -94 27 -225 0 -131 -2 -153 -27 -225 -38 -115 -91 -199 -182
-291 -66 -66 -98 -89 -175 -128 -116 -57 -178 -74 -295 -82 -215 -15 -425 71
-578 236 -256 276 -254 708 4 984 178 190 427 271 677 220z"/>
<path fill="currentColor" d="M2217 3964 c-12 -12 -8 -282 4 -289 5 -4 21 -4 35 -1 l25 7 -3 142
-3 142 -25 3 c-14 2 -29 0 -33 -4z"/>
<path fill="currentColor" d="M2717 3963 c-4 -3 -7 -65 -7 -138 0 -135 5 -155 42 -155 29 0 38 34
38 150 0 61 -5 120 -10 131 -10 18 -50 26 -63 12z"/>
<path fill="currentColor" d="M2060 3375 c-23 -28 -1 -54 84 -95 122 -58 213 -81 347 -87 143 -7
235 11 347 67 117 59 146 95 99 124 -14 9 -25 6 -55 -12 -132 -81 -226 -106
-382 -100 -125 6 -231 33 -342 89 -65 33 -80 35 -98 14z"/>
<path fill="currentColor" d="M1044 4306 c-14 -36 6 -54 151 -138 83 -48 155 -87 162 -88 17 0 43
39 36 56 -7 19 -297 184 -323 184 -11 0 -23 -6 -26 -14z"/>
<path fill="currentColor" d="M3711 4235 c-79 -46 -147 -89 -151 -95 -11 -18 0 -49 20 -55 19 -6
305 150 330 180 16 20 -4 55 -33 55 -12 -1 -87 -39 -166 -85z"/>
<path fill="currentColor" d="M4482 4312 c-9 -6 -12 -35 -10 -108 l3 -99 30 0 30 0 3 99 c3 98 -2
116 -33 116 -5 0 -16 -4 -23 -8z"/>
<path fill="currentColor" d="M587 4054 c-4 -4 -7 -49 -7 -99 0 -100 10 -123 50 -110 19 6 21 13
18 108 -3 101 -3 102 -28 105 -14 2 -29 0 -33 -4z"/>
<path fill="currentColor" d="M4217 4054 c-14 -14 -6 -54 12 -64 28 -15 163 -13 185 3 11 8 17 23
14 38 -3 23 -5 24 -104 27 -55 1 -103 0 -107 -4z"/>
<path fill="currentColor" d="M4587 4053 c-14 -13 -6 -53 12 -63 11 -5 52 -10 91 -10 78 0 110 11
110 38 0 34 -21 42 -115 42 -51 0 -95 -3 -98 -7z"/>
<path fill="currentColor" d="M4474 3937 c-3 -8 -3 -56 -2 -108 l3 -94 30 0 30 0 3 99 c3 103 -1
116 -41 116 -10 0 -20 -6 -23 -13z"/>
<path fill="currentColor" d="M338 3799 c-10 -5 -18 -18 -18 -28 0 -34 24 -42 121 -39 90 3 94 4
97 26 6 42 -13 52 -102 52 -44 0 -89 -5 -98 -11z"/>
<path fill="currentColor" d="M700 3795 c-7 -8 -10 -25 -6 -40 6 -25 8 -25 106 -25 98 0 100 0 106
25 11 45 -9 55 -106 55 -65 0 -91 -4 -100 -15z"/>
<path fill="currentColor" d="M587 3684 c-4 -4 -7 -49 -7 -99 0 -72 3 -95 16 -106 11 -9 20 -10 32
-2 14 8 17 28 17 109 0 99 0 99 -25 102 -14 2 -29 0 -33 -4z"/>
<path fill="currentColor" d="M1201 3581 c-142 -165 -230 -337 -293 -574 -16 -61 -22 -112 -22
-202 -1 -113 1 -123 27 -174 28 -53 29 -54 12 -97 -22 -57 -96 -166 -245 -359
-111 -144 -180 -257 -180 -293 0 -57 68 -121 208 -196 l77 -41 7 -145 c10
-193 34 -396 58 -499 37 -152 96 -239 194 -283 49 -22 62 -23 311 -24 180 0
272 -4 298 -13 l37 -13 1 -96 c2 -161 -1 -270 -12 -410 -10 -116 -9 -136 4
-149 20 -20 55 -8 62 20 13 59 25 263 25 443 l0 202 76 17 c158 35 317 140
408 268 51 73 56 86 44 110 -17 32 -54 21 -81 -25 -64 -109 -198 -217 -319
-257 -80 -27 -181 -39 -233 -28 -22 4 -157 9 -300 10 -248 2 -262 3 -302 24
-111 60 -157 211 -183 598 -6 88 -13 193 -16 233 l-6 72 -93 46 c-115 56 -189
116 -179 148 11 36 64 114 178 261 137 176 212 291 237 360 24 70 24 68 -11
143 -25 54 -30 76 -30 140 1 237 135 553 319 752 54 58 58 69 39 88 -27 27
-57 13 -117 -57z"/>
<path fill="currentColor" d="M3656 3594 c-9 -8 -16 -20 -16 -25 0 -5 28 -39 61 -76 212 -234 314
-541 281 -842 -28 -250 -112 -440 -350 -791 -132 -194 -160 -253 -179 -378
-21 -134 -13 -437 17 -637 39 -269 127 -565 210 -709 73 -128 115 -163 140
-116 9 16 1 35 -44 111 -157 260 -257 698 -256 1128 1 179 17 285 54 358 14
28 83 139 153 245 257 390 337 604 336 903 -1 306 -106 572 -311 788 -59 61
-71 66 -96 41z"/>
<path fill="currentColor" d="M4001 1606 c-8 -9 -11 -46 -9 -101 2 -71 6 -90 21 -99 12 -8 22 -8
35 0 14 9 18 28 20 104 3 96 -2 109 -39 110 -9 0 -22 -6 -28 -14z"/>
<path fill="currentColor" d="M3756 1357 c-11 -8 -17 -23 -14 -38 3 -23 6 -24 99 -27 75 -2 99 1
108 12 17 20 5 53 -22 60 -41 11 -153 6 -171 -7z"/>
<path fill="currentColor" d="M4120 1350 c-16 -16 -18 -24 -10 -41 10 -18 20 -19 107 -17 80 3 98
6 107 21 9 15 7 22 -13 38 -34 28 -162 28 -191 -1z"/>
<path fill="currentColor" d="M4002 1238 c-15 -15 -17 -161 -2 -189 6 -10 19 -19 29 -19 34 0 42
24 39 121 -3 92 -4 94 -28 97 -14 2 -31 -3 -38 -10z"/>
</g>
</svg>
