<?xml version="1.0" standalone="no"?>
<!DOCTYPE svg PUBLIC "-//W3C//DTD SVG 20010904//EN"
 "http://www.w3.org/TR/2001/REC-SVG-20010904/DTD/svg10.dtd">
<svg version="1.0" xmlns="http://www.w3.org/2000/svg"
 width="512.000000pt" height="512.000000pt" viewBox="0 0 512.000000 512.000000"
 preserveAspectRatio="xMidYMid meet">

<g transform="translate(0.000000,512.000000) scale(0.100000,-0.100000)"
fill="#000000" stroke="none">
<path fill="currentColor" d="M373 4595 c-91 -20 -175 -68 -241 -140 -63 -67 -94 -123 -117 -212
-23 -87 -22 -2481 0 -2568 49 -187 204 -328 390 -355 44 -6 570 -10 1425 -10
l1355 0 32 -58 c142 -258 461 -540 790 -700 108 -52 108 -52 263 31 329 175
608 439 750 710 100 190 94 145 98 781 2 479 1 561 -12 581 -10 16 -99 57
-300 140 l-286 119 0 627 c0 384 -4 647 -10 680 -35 183 -185 336 -367 374
-98 21 -3675 21 -3770 0z m3809 -183 c72 -35 114 -78 151 -152 20 -41 22 -63
25 -227 l4 -183 -2101 0 -2101 0 0 163 c0 116 4 178 15 214 29 99 116 180 224
209 36 10 448 12 1881 11 l1835 -2 67 -33z m178 -1077 l0 -355 -37 16 c-169
71 -209 85 -227 80 -52 -13 -959 -396 -977 -412 -19 -17 -20 -32 -17 -588 2
-314 7 -579 12 -589 8 -17 -53 -17 -1351 -15 l-1360 3 -69 35 c-49 25 -79 49
-106 85 -71 93 -68 40 -68 1122 l0 973 2100 0 2100 0 0 -355z m128 -581 c207
-86 398 -165 425 -176 l47 -20 0 -487 c0 -550 1 -543 -76 -692 -132 -255 -409
-515 -712 -668 l-62 -31 -62 31 c-306 153 -583 410 -715 664 -75 145 -74 130
-71 689 l3 498 415 173 c228 95 419 173 423 174 5 1 178 -69 385 -155z"/>
<path fill="currentColor" d="M634 2116 c-48 -21 -61 -89 -24 -126 19 -19 33 -20 510 -20 477 0
491 1 510 20 22 22 26 69 10 100 -19 36 -72 40 -530 40 -351 -1 -452 -4 -476
-14z"/>
<path fill="currentColor" d="M4527 2228 c-14 -13 -143 -171 -287 -352 -144 -180 -265 -324 -269
-320 -5 5 -71 93 -149 195 -98 129 -149 189 -166 193 -32 8 -72 -8 -85 -33
-27 -50 -16 -71 155 -297 202 -267 208 -274 250 -274 42 0 31 -11 388 434 319
399 321 402 271 451 -31 32 -76 33 -108 3z"/>
</g>
</svg>
