<svg width="611" height="101" viewBox="0 0 611 101" fill="none" xmlns="http://www.w3.org/2000/svg">
<path d="M131.484 4.14779C132.889 4.14054 134.281 4.14131 135.662 4.14992C169.069 4.35825 164.773 50.5693 131.365 50.3936M92.6022 4.15997H132.032M92.6022 50.4058H132.032M131.484 51.0273C132.889 51.02 134.281 51.0208 135.662 51.0294C169.069 51.2377 164.773 97.4487 131.365 97.2731M92.6022 51.0394H132.032M92.6022 97.2857H132.032M463.229 4.14286V98.1429M464.996 51.4748L517.491 5.47478M464.657 51.6581L522.198 98.2977M538.451 3.75231L570.128 50.8952M570.48 48.7143V99M609 3.45353L570.082 51.7392M3.45254 3H70.8804V5.31635H3.45254V3ZM3 96.1429H70.4279V98.4592H3V96.1429ZM3 49.1275H70.4279V51.4439H3V49.1275ZM295.791 51.2857C295.791 77.322 268.743 98.4286 235.377 98.4286C202.012 98.4286 174.964 77.322 174.964 51.2857C174.964 25.2494 202.012 4.14286 235.377 4.14286C268.743 4.14286 295.791 25.2494 295.791 51.2857ZM437.435 51.2857C437.435 77.322 410.387 98.4286 377.021 98.4286C343.656 98.4286 316.608 77.322 316.608 51.2857C316.608 25.2494 343.656 4.14286 377.021 4.14286C410.387 4.14286 437.435 25.2494 437.435 51.2857Z" stroke="black" stroke-width="5"/>
</svg>
